<svg width="7274" height="1674" viewBox="0 0 7274 1674" fill="none" xmlns="http://www.w3.org/2000/svg">
<path d="M1536.05 408.006C1380.74 335.814 1320.72 274.502 1259.55 130.006C1188.42 289.827 1124.3 345.71 983.049 408.006C1126.9 467.336 1193.15 520.137 1259.55 684.506C1327.75 535.401 1387.17 473.701 1536.05 408.006Z" fill="white" stroke="white"/>
<path d="M1283.55 859.006H1572.05C1455.35 1165.98 1250.34 1324.59 852.549 1288.51C1127.08 1246.59 1248.75 1121 1283.55 859.006Z" fill="white" stroke="white"/>
<path d="M1623.05 860.506H1662.05C1626.87 1406.01 1135.05 1774.51 661.549 1648.01C188.049 1521.51 59.5674 854.896 484.549 542.006C25.7274 1287.31 1348.67 1758.43 1623.05 860.506Z" fill="white" stroke="white"/>
<path d="M361.549 1510.01C-472.813 912.487 276.221 -359.23 1217.05 97.5063C1144.43 268.661 1057.78 341.652 871.049 379.996L865.893 380.512C220.307 382.766 -35.3303 1098.48 361.549 1510.01Z" fill="white" stroke="white"/>
<mask id="path-5-outside-1_72_2" maskUnits="userSpaceOnUse" x="1895.51" y="5.50391" width="5274" height="1605" fill="black">
<rect fill="white" x="1895.51" y="5.50391" width="5274" height="1605"/>
<path d="M2416.51 1590.5C2194.51 1590.5 2030.51 1500.5 1924.51 1348.5L2086.51 1242.5C2160.51 1352.5 2278.51 1422.5 2422.51 1422.5C2596.51 1422.5 2682.51 1332.5 2682.51 1228.5C2682.51 1108.5 2530.51 1084.5 2372.51 1048.5C2180.51 1000.5 1978.51 940.504 1978.51 710.504C1978.51 532.504 2144.51 370.504 2408.51 370.504C2598.51 370.504 2760.51 442.504 2854.51 564.504L2704.51 668.504C2632.51 582.504 2536.51 532.504 2408.51 532.504C2250.51 532.504 2168.51 610.504 2168.51 706.504C2168.51 822.504 2304.51 844.504 2470.51 886.504C2658.51 934.504 2870.51 988.504 2870.51 1226.5C2870.51 1380.5 2736.51 1590.5 2416.51 1590.5ZM3001.15 568.504V396.504H3205.15V174.504L3393.15 44.5038V396.504H3667.15V568.504H3393.15V1112.5C3393.15 1346.5 3435.15 1386.5 3667.15 1386.5V1566.5H3639.15C3297.15 1566.5 3205.15 1466.5 3205.15 1114.5V568.504H3001.15ZM3879.79 1566.5V396.504H4067.79V564.504C4125.79 450.504 4223.79 394.504 4363.79 394.504C4465.79 394.504 4533.79 422.504 4591.79 454.504L4511.79 632.504C4465.79 602.504 4429.79 580.504 4333.79 580.504C4175.79 580.504 4069.79 676.504 4069.79 906.504C4069.79 918.504 4065.79 1084.5 4071.79 1244.5V1566.5H3879.79ZM5262.34 1590.5C4888.34 1590.5 4644.34 1330.5 4644.34 988.504C4644.34 640.504 4904.34 372.504 5252.34 372.504C5594.34 372.504 5852.34 614.504 5852.34 966.504V1046.5H4830.34C4856.34 1268.5 5026.34 1420.5 5262.34 1420.5C5448.34 1420.5 5582.34 1324.5 5652.34 1172.5L5814.34 1258.5C5708.34 1466.5 5532.34 1590.5 5262.34 1590.5ZM5252.34 542.504C5044.34 542.504 4884.34 682.504 4840.34 876.504H5658.34C5624.34 668.504 5478.34 542.504 5252.34 542.504ZM6067.29 1566.5V396.504H6255.29V576.504C6335.29 454.504 6475.29 372.504 6651.29 372.504C6957.29 372.504 7149.29 572.504 7149.29 902.504V1566.5H6957.29V910.504C6957.29 684.504 6845.29 542.504 6615.29 542.504C6411.29 542.504 6257.29 700.504 6257.29 918.504V1566.5H6067.29Z"/>
</mask>
<path d="M2416.51 1590.5C2194.51 1590.5 2030.51 1500.5 1924.51 1348.5L2086.51 1242.5C2160.51 1352.5 2278.51 1422.5 2422.51 1422.5C2596.51 1422.5 2682.51 1332.5 2682.51 1228.5C2682.51 1108.5 2530.51 1084.5 2372.51 1048.5C2180.51 1000.5 1978.51 940.504 1978.51 710.504C1978.51 532.504 2144.51 370.504 2408.51 370.504C2598.51 370.504 2760.51 442.504 2854.51 564.504L2704.51 668.504C2632.51 582.504 2536.51 532.504 2408.51 532.504C2250.51 532.504 2168.51 610.504 2168.51 706.504C2168.51 822.504 2304.51 844.504 2470.51 886.504C2658.51 934.504 2870.51 988.504 2870.51 1226.5C2870.51 1380.5 2736.51 1590.5 2416.51 1590.5ZM3001.15 568.504V396.504H3205.15V174.504L3393.15 44.5038V396.504H3667.15V568.504H3393.15V1112.5C3393.15 1346.5 3435.15 1386.5 3667.15 1386.5V1566.5H3639.15C3297.15 1566.5 3205.15 1466.5 3205.15 1114.5V568.504H3001.15ZM3879.79 1566.5V396.504H4067.79V564.504C4125.79 450.504 4223.79 394.504 4363.79 394.504C4465.79 394.504 4533.79 422.504 4591.79 454.504L4511.79 632.504C4465.79 602.504 4429.79 580.504 4333.79 580.504C4175.79 580.504 4069.79 676.504 4069.79 906.504C4069.79 918.504 4065.79 1084.5 4071.79 1244.5V1566.5H3879.79ZM5262.34 1590.5C4888.34 1590.5 4644.34 1330.5 4644.34 988.504C4644.34 640.504 4904.34 372.504 5252.34 372.504C5594.34 372.504 5852.34 614.504 5852.34 966.504V1046.5H4830.34C4856.34 1268.5 5026.34 1420.5 5262.34 1420.5C5448.34 1420.5 5582.34 1324.5 5652.34 1172.5L5814.34 1258.5C5708.34 1466.5 5532.34 1590.5 5262.34 1590.5ZM5252.34 542.504C5044.34 542.504 4884.34 682.504 4840.34 876.504H5658.34C5624.34 668.504 5478.34 542.504 5252.34 542.504ZM6067.29 1566.5V396.504H6255.29V576.504C6335.29 454.504 6475.29 372.504 6651.29 372.504C6957.29 372.504 7149.29 572.504 7149.29 902.504V1566.5H6957.29V910.504C6957.29 684.504 6845.29 542.504 6615.29 542.504C6411.29 542.504 6257.29 700.504 6257.29 918.504V1566.5H6067.29Z" fill="white"/>
<path d="M1924.51 1348.5L1913.56 1331.77L1896.32 1343.05L1908.1 1359.94L1924.51 1348.5ZM2086.51 1242.5L2103.1 1231.34L2092.08 1214.96L2075.56 1225.77L2086.51 1242.5ZM2372.51 1048.5L2367.66 1067.91L2367.86 1067.96L2368.06 1068L2372.51 1048.5ZM2854.51 564.504L2865.9 580.94L2883.19 568.957L2870.35 552.297L2854.51 564.504ZM2704.51 668.504L2689.17 681.343L2700.9 695.345L2715.9 684.94L2704.51 668.504ZM2470.51 886.504L2475.46 867.126L2475.43 867.12L2475.41 867.115L2470.51 886.504ZM2416.51 1590.5V1570.5C2200.67 1570.5 2042.96 1483.4 1940.91 1337.06L1924.51 1348.5L1908.1 1359.94C2018.05 1517.61 2188.35 1610.5 2416.51 1610.5V1590.5ZM1924.51 1348.5L1935.46 1365.24L2097.46 1259.24L2086.51 1242.5L2075.56 1225.77L1913.56 1331.77L1924.51 1348.5ZM2086.51 1242.5L2069.91 1253.67C2147.39 1368.83 2271.43 1442.5 2422.51 1442.5V1422.5V1402.5C2285.58 1402.5 2173.63 1336.17 2103.1 1231.34L2086.51 1242.5ZM2422.51 1422.5V1442.5C2512.82 1442.5 2582.72 1419.14 2630.45 1379.96C2678.43 1340.58 2702.51 1286.36 2702.51 1228.5H2682.51H2662.51C2662.51 1274.65 2643.59 1317.43 2605.07 1349.04C2566.29 1380.87 2506.19 1402.5 2422.51 1402.5V1422.5ZM2682.51 1228.5H2702.51C2702.51 1193.8 2691.35 1165.2 2671.53 1141.87C2652.12 1119.01 2625.18 1102.11 2594.84 1088.71C2534.81 1062.2 2454.56 1046.69 2376.95 1029L2372.51 1048.5L2368.06 1068C2448.45 1086.32 2523.21 1100.81 2578.68 1125.3C2606.08 1137.4 2627.02 1151.25 2641.04 1167.76C2654.67 1183.8 2662.51 1203.2 2662.51 1228.5H2682.51ZM2372.51 1048.5L2377.36 1029.1C2280.92 1004.99 2185.79 978.653 2114.61 931.121C2045.04 884.662 1998.51 818.099 1998.51 710.504H1978.51H1958.51C1958.51 832.909 2012.97 911.346 2092.4 964.386C2170.22 1016.36 2272.1 1044.02 2367.66 1067.91L2372.51 1048.5ZM1978.51 710.504H1998.51C1998.51 546.629 2152.2 390.504 2408.51 390.504V370.504V350.504C2136.82 350.504 1958.51 518.379 1958.51 710.504H1978.51ZM2408.51 370.504V390.504C2593.69 390.504 2749.23 460.63 2838.67 576.711L2854.51 564.504L2870.35 552.297C2771.79 424.378 2603.32 350.504 2408.51 350.504V370.504ZM2854.51 564.504L2843.11 548.068L2693.11 652.068L2704.51 668.504L2715.9 684.94L2865.9 580.94L2854.51 564.504ZM2704.51 668.504L2719.84 655.665C2644.16 565.266 2542.61 512.504 2408.51 512.504V532.504V552.504C2530.41 552.504 2620.86 599.742 2689.17 681.343L2704.51 668.504ZM2408.51 532.504V512.504C2326.41 512.504 2261.64 532.762 2216.93 567.754C2171.85 603.033 2148.51 652.335 2148.51 706.504H2168.51H2188.51C2188.51 664.673 2206.16 626.975 2241.58 599.254C2277.37 571.246 2332.61 552.504 2408.51 552.504V532.504ZM2168.51 706.504H2148.51C2148.51 739.82 2158.42 767.435 2176.78 790.213C2194.79 812.546 2220 829.095 2248.88 842.415C2305.83 868.68 2384.16 885.287 2465.6 905.893L2470.51 886.504L2475.41 867.115C2390.86 845.721 2318.18 830.327 2265.63 806.092C2239.77 794.163 2220.6 780.836 2207.92 765.107C2195.6 749.823 2188.51 731.188 2188.51 706.504H2168.51ZM2470.51 886.504L2465.56 905.882C2560.38 930.091 2656.94 954.918 2730.18 1002.07C2766.4 1025.39 2796.27 1053.81 2817.15 1089.77C2837.99 1125.65 2850.51 1170.1 2850.51 1226.5H2870.51H2890.51C2890.51 1163.9 2876.53 1112.36 2851.74 1069.68C2827 1027.08 2792.11 994.369 2751.83 968.437C2672.08 917.09 2568.64 890.917 2475.46 867.126L2470.51 886.504ZM2870.51 1226.5H2850.51C2850.51 1369.01 2725.92 1570.5 2416.51 1570.5V1590.5V1610.5C2747.1 1610.5 2890.51 1392 2890.51 1226.5H2870.51ZM3001.15 568.504H2981.15V588.504H3001.15V568.504ZM3001.15 396.504V376.504H2981.15V396.504H3001.15ZM3205.15 396.504V416.504H3225.15V396.504H3205.15ZM3205.15 174.504L3193.77 158.054L3185.15 164.018V174.504H3205.15ZM3393.15 44.5038H3413.15V6.35814L3381.77 28.0537L3393.15 44.5038ZM3393.15 396.504H3373.15V416.504H3393.15V396.504ZM3667.15 396.504H3687.15V376.504H3667.15V396.504ZM3667.15 568.504V588.504H3687.15V568.504H3667.15ZM3393.15 568.504V548.504H3373.15V568.504H3393.15ZM3667.15 1386.5H3687.15V1366.5H3667.15V1386.5ZM3667.15 1566.5V1586.5H3687.15V1566.5H3667.15ZM3205.15 568.504H3225.15V548.504H3205.15V568.504ZM3001.15 568.504H3021.15V396.504H3001.15H2981.15V568.504H3001.15ZM3001.15 396.504V416.504H3205.15V396.504V376.504H3001.15V396.504ZM3205.15 396.504H3225.15V174.504H3205.15H3185.15V396.504H3205.15ZM3205.15 174.504L3216.52 190.954L3404.52 60.954L3393.15 44.5038L3381.77 28.0537L3193.77 158.054L3205.15 174.504ZM3393.15 44.5038H3373.15V396.504H3393.15H3413.15V44.5038H3393.15ZM3393.15 396.504V416.504H3667.15V396.504V376.504H3393.15V396.504ZM3667.15 396.504H3647.15V568.504H3667.15H3687.15V396.504H3667.15ZM3667.15 568.504V548.504H3393.15V568.504V588.504H3667.15V568.504ZM3393.15 568.504H3373.15V1112.5H3393.15H3413.15V568.504H3393.15ZM3393.15 1112.5H3373.15C3373.15 1171.31 3375.76 1219.35 3383.75 1258.08C3391.78 1297.02 3405.57 1328.1 3429.05 1351.44C3452.53 1374.77 3483.67 1388.34 3522.49 1396.2C3561.09 1404.02 3608.87 1406.5 3667.15 1406.5V1386.5V1366.5C3609.43 1366.5 3564.95 1363.99 3530.43 1357C3496.13 1350.05 3473.27 1338.99 3457.25 1323.07C3441.23 1307.15 3430.01 1284.36 3422.92 1249.99C3415.79 1215.4 3413.15 1170.7 3413.15 1112.5H3393.15ZM3667.15 1386.5H3647.15V1566.5H3667.15H3687.15V1386.5H3667.15ZM3667.15 1566.5V1546.5H3639.15V1566.5V1586.5H3667.15V1566.5ZM3639.15 1566.5V1546.5C3468.59 1546.5 3367.91 1521.18 3308.38 1458.71C3248.55 1395.92 3225.15 1290.37 3225.15 1114.5H3205.15H3185.15C3185.15 1290.63 3207.75 1411.09 3279.42 1486.3C3351.39 1561.83 3467.71 1586.5 3639.15 1586.5V1566.5ZM3205.15 1114.5H3225.15V568.504H3205.15H3185.15V1114.5H3205.15ZM3205.15 568.504V548.504H3001.15V568.504V588.504H3205.15V568.504ZM3879.79 1566.5H3859.79V1586.5H3879.79V1566.5ZM3879.79 396.504V376.504H3859.79V396.504H3879.79ZM4067.79 396.504H4087.79V376.504H4067.79V396.504ZM4067.79 564.504H4047.79L4085.61 573.573L4067.79 564.504ZM4591.79 454.504L4610.03 462.703L4617.59 445.894L4601.45 436.992L4591.79 454.504ZM4511.79 632.504L4500.86 649.256L4520.45 662.028L4530.03 640.703L4511.79 632.504ZM4071.79 1244.5H4091.79V1244.13L4091.78 1243.75L4071.79 1244.5ZM4071.79 1566.5V1586.5H4091.79V1566.5H4071.79ZM3879.79 1566.5H3899.79V396.504H3879.79H3859.79V1566.5H3879.79ZM3879.79 396.504V416.504H4067.79V396.504V376.504H3879.79V396.504ZM4067.79 396.504H4047.79V564.504H4067.79H4087.79V396.504H4067.79ZM4067.79 564.504L4085.61 573.573C4113.08 519.586 4149.53 480.178 4194.99 454.102C4240.56 427.961 4296.45 414.504 4363.79 414.504V394.504V374.504C4291.13 374.504 4228.01 389.047 4175.09 419.405C4122.05 449.829 4080.5 495.422 4049.96 555.435L4067.79 564.504ZM4363.79 394.504V414.504C4461.47 414.504 4526.13 441.122 4582.13 472.015L4591.79 454.504L4601.45 436.992C4541.45 403.886 4470.11 374.504 4363.79 374.504V394.504ZM4591.79 454.504L4573.55 446.305L4493.55 624.305L4511.79 632.504L4530.03 640.703L4610.03 462.703L4591.79 454.504ZM4511.79 632.504L4522.71 615.752C4499.71 600.747 4477.39 586.488 4448.08 576.352C4418.66 566.181 4383.33 560.504 4333.79 560.504V580.504V600.504C4380.25 600.504 4410.92 605.826 4435 614.156C4459.19 622.52 4477.87 634.261 4500.86 649.256L4511.79 632.504ZM4333.79 580.504V560.504C4250.64 560.504 4178.5 585.905 4127.5 644.069C4076.89 701.797 4049.79 788.777 4049.79 906.504H4069.79H4089.79C4089.79 794.231 4115.69 718.21 4157.58 670.439C4199.08 623.103 4258.93 600.504 4333.79 600.504V580.504ZM4069.79 906.504H4049.79C4049.79 917.781 4045.78 1084.77 4051.8 1245.25L4071.79 1244.5L4091.78 1243.75C4085.79 1084.24 4089.79 919.227 4089.79 906.504H4069.79ZM4071.79 1244.5H4051.79V1566.5H4071.79H4091.79V1244.5H4071.79ZM4071.79 1566.5V1546.5H3879.79V1566.5V1586.5H4071.79V1566.5ZM5852.34 1046.5V1066.5H5872.34V1046.5H5852.34ZM4830.34 1046.5V1026.5H4807.86L4810.47 1048.83L4830.34 1046.5ZM5652.34 1172.5L5661.71 1154.84L5643.02 1144.92L5634.17 1164.14L5652.34 1172.5ZM5814.34 1258.5L5832.16 1267.58L5841.09 1250.06L5823.71 1240.84L5814.34 1258.5ZM4840.34 876.504L4820.83 872.08L4815.29 896.504H4840.34V876.504ZM5658.34 876.504V896.504H5681.87L5678.07 873.277L5658.34 876.504ZM5262.34 1590.5V1570.5C5080.12 1570.5 4930.88 1507.26 4827.23 1403.61C4723.54 1299.92 4664.34 1154.65 4664.34 988.504H4644.34H4624.34C4624.34 1164.36 4687.13 1320.09 4798.94 1431.9C4910.8 1543.75 5070.55 1610.5 5262.34 1610.5V1590.5ZM4644.34 988.504H4664.34C4664.34 651.204 4915.72 392.504 5252.34 392.504V372.504V352.504C4892.95 352.504 4624.34 629.804 4624.34 988.504H4644.34ZM5252.34 372.504V392.504C5583.78 392.504 5832.34 626.036 5832.34 966.504H5852.34H5872.34C5872.34 602.972 5604.89 352.504 5252.34 352.504V372.504ZM5852.34 966.504H5832.34V1046.5H5852.34H5872.34V966.504H5852.34ZM5852.34 1046.5V1026.5H4830.34V1046.5V1066.5H5852.34V1046.5ZM4830.34 1046.5L4810.47 1048.83C4837.69 1281.22 5016.51 1440.5 5262.34 1440.5V1420.5V1400.5C5036.16 1400.5 4874.98 1255.78 4850.2 1044.18L4830.34 1046.5ZM5262.34 1420.5V1440.5C5456.5 1440.5 5597.39 1339.63 5670.5 1180.87L5652.34 1172.5L5634.17 1164.14C5567.28 1309.37 5440.17 1400.5 5262.34 1400.5V1420.5ZM5652.34 1172.5L5642.96 1190.17L5804.96 1276.17L5814.34 1258.5L5823.71 1240.84L5661.71 1154.84L5652.34 1172.5ZM5814.34 1258.5L5796.52 1249.42C5744.84 1350.82 5676.6 1430.82 5589.22 1485.55C5501.87 1540.27 5394.18 1570.5 5262.34 1570.5V1590.5V1610.5C5400.5 1610.5 5515.8 1578.74 5610.45 1519.45C5705.07 1460.19 5777.83 1374.18 5832.16 1267.58L5814.34 1258.5ZM5252.34 542.504V522.504C5034.38 522.504 4866.76 669.579 4820.83 872.08L4840.34 876.504L4859.84 880.928C4901.91 695.428 5054.29 562.504 5252.34 562.504V542.504ZM4840.34 876.504V896.504H5658.34V876.504V856.504H4840.34V876.504ZM5658.34 876.504L5678.07 873.277C5660.43 765.321 5613.41 677.197 5540.14 616.139C5466.9 555.107 5369.1 522.504 5252.34 522.504V542.504V562.504C5361.57 562.504 5449.77 592.901 5514.53 646.868C5579.26 700.811 5622.24 779.687 5638.6 879.73L5658.34 876.504ZM6067.29 1566.5H6047.29V1586.5H6067.29V1566.5ZM6067.29 396.504V376.504H6047.29V396.504H6067.29ZM6255.29 396.504H6275.29V376.504H6255.29V396.504ZM6255.29 576.504H6235.29V643.476L6272.01 587.471L6255.29 576.504ZM7149.29 1566.5V1586.5H7169.29V1566.5H7149.29ZM6957.29 1566.5H6937.29V1586.5H6957.29V1566.5ZM6257.29 1566.5V1586.5H6277.29V1566.5H6257.29ZM6067.29 1566.5H6087.29V396.504H6067.29H6047.29V1566.5H6067.29ZM6067.29 396.504V416.504H6255.29V396.504V376.504H6067.29V396.504ZM6255.29 396.504H6235.29V576.504H6255.29H6275.29V396.504H6255.29ZM6255.29 576.504L6272.01 587.471C6348.23 471.235 6481.88 392.504 6651.29 392.504V372.504V352.504C6468.7 352.504 6322.34 437.772 6238.56 565.537L6255.29 576.504ZM6651.29 372.504V392.504C6799.8 392.504 6918.67 440.917 7000.5 527.492C7082.46 614.195 7129.29 741.336 7129.29 902.504H7149.29H7169.29C7169.29 733.671 7120.12 595.813 7029.57 500.016C6938.9 404.09 6808.78 352.504 6651.29 352.504V372.504ZM7149.29 902.504H7129.29V1566.5H7149.29H7169.29V902.504H7149.29ZM7149.29 1566.5V1546.5H6957.29V1566.5V1586.5H7149.29V1566.5ZM6957.29 1566.5H6977.29V910.504H6957.29H6937.29V1566.5H6957.29ZM6957.29 910.504H6977.29C6977.29 794.472 6948.55 697.059 6887.48 628.456C6826.07 559.468 6734.55 522.504 6615.29 522.504V542.504V562.504C6726.03 562.504 6805.51 596.54 6857.6 655.052C6910.03 713.949 6937.29 800.536 6937.29 910.504H6957.29ZM6615.29 542.504V522.504C6399.46 522.504 6237.29 690.26 6237.29 918.504H6257.29H6277.29C6277.29 710.748 6423.12 562.504 6615.29 562.504V542.504ZM6257.29 918.504H6237.29V1566.5H6257.29H6277.29V918.504H6257.29ZM6257.29 1566.5V1546.5H6067.29V1566.5V1586.5H6257.29V1566.5Z" fill="white" mask="url(#path-5-outside-1_72_2)"/>
</svg>
