<svg width="7273" height="1673" viewBox="0 0 7273 1673" fill="none" xmlns="http://www.w3.org/2000/svg">
<path d="M1535.54 407.502C1380.23 335.31 1320.21 273.998 1259.04 129.502C1187.91 289.323 1123.79 345.207 982.541 407.502C1126.39 466.832 1192.64 519.634 1259.04 684.002C1327.24 534.897 1386.66 473.197 1535.54 407.502Z" fill="black"/>
<path d="M1283.04 858.502H1571.54C1454.85 1165.47 1249.83 1324.08 852.041 1288C1126.57 1246.09 1248.24 1120.49 1283.04 858.502Z" fill="black"/>
<path d="M1622.54 860.002H1661.54C1626.36 1405.51 1134.54 1774 661.041 1647.5C187.541 1521 59.0596 854.392 484.041 541.502C25.2196 1286.81 1348.16 1757.93 1622.54 860.002Z" fill="black"/>
<path d="M361.041 1509.5C-473.321 911.983 275.713 -359.734 1216.54 97.0024C1143.92 268.157 1057.28 341.148 870.541 379.492L865.385 380.008C219.799 382.262 -35.8381 1097.98 361.041 1509.5Z" fill="black"/>
<mask id="path-5-outside-1_68_5" maskUnits="userSpaceOnUse" x="1895" y="5" width="5274" height="1605" fill="black">
<rect fill="white" x="1895" y="5" width="5274" height="1605"/>
<path d="M2416 1590C2194 1590 2030 1500 1924 1348L2086 1242C2160 1352 2278 1422 2422 1422C2596 1422 2682 1332 2682 1228C2682 1108 2530 1084 2372 1048C2180 1000 1978 940 1978 710C1978 532 2144 370 2408 370C2598 370 2760 442 2854 564L2704 668C2632 582 2536 532 2408 532C2250 532 2168 610 2168 706C2168 822 2304 844 2470 886C2658 934 2870 988 2870 1226C2870 1380 2736 1590 2416 1590ZM3000.64 568V396H3204.64V174L3392.64 43.9999V396H3666.64V568H3392.64V1112C3392.64 1346 3434.64 1386 3666.64 1386V1566H3638.64C3296.64 1566 3204.64 1466 3204.64 1114V568H3000.64ZM3879.28 1566V396H4067.28V564C4125.28 450 4223.28 394 4363.28 394C4465.28 394 4533.28 422 4591.28 454L4511.28 632C4465.28 602 4429.28 580 4333.28 580C4175.28 580 4069.28 676 4069.28 906C4069.28 918 4065.28 1084 4071.28 1244V1566H3879.28ZM5261.83 1590C4887.83 1590 4643.83 1330 4643.83 988C4643.83 640 4903.83 372 5251.83 372C5593.83 372 5851.83 614 5851.83 966V1046H4829.83C4855.83 1268 5025.83 1420 5261.83 1420C5447.83 1420 5581.83 1324 5651.83 1172L5813.83 1258C5707.83 1466 5531.83 1590 5261.83 1590ZM5251.83 542C5043.83 542 4883.83 682 4839.83 876H5657.83C5623.83 668 5477.83 542 5251.83 542ZM6066.78 1566V396H6254.78V576C6334.78 454 6474.78 372 6650.78 372C6956.78 372 7148.78 572 7148.78 902V1566H6956.78V910C6956.78 684 6844.78 542 6614.78 542C6410.78 542 6256.78 700 6256.78 918V1566H6066.78Z"/>
</mask>
<path d="M2416 1590C2194 1590 2030 1500 1924 1348L2086 1242C2160 1352 2278 1422 2422 1422C2596 1422 2682 1332 2682 1228C2682 1108 2530 1084 2372 1048C2180 1000 1978 940 1978 710C1978 532 2144 370 2408 370C2598 370 2760 442 2854 564L2704 668C2632 582 2536 532 2408 532C2250 532 2168 610 2168 706C2168 822 2304 844 2470 886C2658 934 2870 988 2870 1226C2870 1380 2736 1590 2416 1590ZM3000.64 568V396H3204.64V174L3392.64 43.9999V396H3666.64V568H3392.64V1112C3392.64 1346 3434.64 1386 3666.64 1386V1566H3638.64C3296.64 1566 3204.64 1466 3204.64 1114V568H3000.64ZM3879.28 1566V396H4067.28V564C4125.28 450 4223.28 394 4363.28 394C4465.28 394 4533.28 422 4591.28 454L4511.28 632C4465.28 602 4429.28 580 4333.28 580C4175.28 580 4069.28 676 4069.28 906C4069.28 918 4065.28 1084 4071.28 1244V1566H3879.28ZM5261.83 1590C4887.83 1590 4643.83 1330 4643.83 988C4643.83 640 4903.83 372 5251.83 372C5593.83 372 5851.83 614 5851.83 966V1046H4829.83C4855.83 1268 5025.83 1420 5261.83 1420C5447.83 1420 5581.83 1324 5651.83 1172L5813.83 1258C5707.83 1466 5531.83 1590 5261.83 1590ZM5251.83 542C5043.83 542 4883.83 682 4839.83 876H5657.83C5623.83 668 5477.83 542 5251.83 542ZM6066.78 1566V396H6254.78V576C6334.78 454 6474.78 372 6650.78 372C6956.78 372 7148.78 572 7148.78 902V1566H6956.78V910C6956.78 684 6844.78 542 6614.78 542C6410.78 542 6256.78 700 6256.78 918V1566H6066.78Z" fill="black"/>
<path d="M1924 1348L1913.05 1331.26L1895.81 1342.54L1907.6 1359.44L1924 1348ZM2086 1242L2102.59 1230.84L2091.57 1214.45L2075.05 1225.26L2086 1242ZM2372 1048L2367.15 1067.4L2367.35 1067.45L2367.56 1067.5L2372 1048ZM2854 564L2865.4 580.436L2882.68 568.453L2869.84 551.793L2854 564ZM2704 668L2688.66 680.839L2700.39 694.841L2715.4 684.436L2704 668ZM2470 886L2474.95 866.622L2474.93 866.616L2474.91 866.611L2470 886ZM2416 1590V1570C2200.16 1570 2042.45 1482.89 1940.4 1336.56L1924 1348L1907.6 1359.44C2017.55 1517.11 2187.84 1610 2416 1610V1590ZM1924 1348L1934.95 1364.74L2096.95 1258.74L2086 1242L2075.05 1225.26L1913.05 1331.26L1924 1348ZM2086 1242L2069.41 1253.16C2146.88 1368.33 2270.92 1442 2422 1442V1422V1402C2285.08 1402 2173.12 1335.67 2102.59 1230.84L2086 1242ZM2422 1422V1442C2512.32 1442 2582.21 1418.63 2629.94 1379.46C2677.92 1340.08 2702 1285.86 2702 1228H2682H2662C2662 1274.14 2643.08 1316.92 2604.56 1348.54C2565.79 1380.37 2505.68 1402 2422 1402V1422ZM2682 1228H2702C2702 1193.3 2690.84 1164.7 2671.03 1141.37C2651.61 1118.5 2624.67 1101.6 2594.33 1088.2C2534.3 1061.7 2454.06 1046.18 2376.44 1028.5L2372 1048L2367.56 1067.5C2447.94 1085.82 2522.7 1100.3 2578.17 1124.8C2605.58 1136.9 2626.52 1150.75 2640.54 1167.26C2654.16 1183.3 2662 1202.7 2662 1228H2682ZM2372 1048L2376.85 1028.6C2280.41 1004.49 2185.28 978.149 2114.11 930.618C2044.53 884.158 1998 817.595 1998 710H1978H1958C1958 832.405 2012.47 910.842 2091.89 963.882C2169.72 1015.85 2271.59 1043.51 2367.15 1067.4L2372 1048ZM1978 710H1998C1998 546.125 2151.69 390 2408 390V370V350C2136.31 350 1958 517.875 1958 710H1978ZM2408 370V390C2593.19 390 2748.72 460.126 2838.16 576.207L2854 564L2869.84 551.793C2771.28 423.874 2602.81 350 2408 350V370ZM2854 564L2842.6 547.564L2692.6 651.564L2704 668L2715.4 684.436L2865.4 580.436L2854 564ZM2704 668L2719.34 655.161C2643.65 564.762 2542.1 512 2408 512V532V552C2529.9 552 2620.35 599.238 2688.66 680.839L2704 668ZM2408 532V512C2325.9 512 2261.14 532.258 2216.42 567.25C2171.34 602.529 2148 651.831 2148 706H2168H2188C2188 664.169 2205.66 626.471 2241.08 598.75C2276.86 570.742 2332.1 552 2408 552V532ZM2168 706H2148C2148 739.316 2157.91 766.931 2176.27 789.709C2194.28 812.042 2219.49 828.591 2248.37 841.912C2305.32 868.176 2383.65 884.783 2465.09 905.389L2470 886L2474.91 866.611C2390.35 845.217 2317.68 829.824 2265.13 805.588C2239.26 793.659 2220.1 780.332 2207.41 764.603C2195.09 749.319 2188 730.684 2188 706H2168ZM2470 886L2465.05 905.378C2559.87 929.587 2656.43 954.414 2729.67 1001.57C2765.89 1024.89 2795.76 1053.3 2816.64 1089.26C2837.48 1125.14 2850 1169.6 2850 1226H2870H2890C2890 1163.4 2876.02 1111.86 2851.23 1069.17C2826.49 1026.57 2791.61 993.865 2751.33 967.934C2671.57 916.586 2568.13 890.413 2474.95 866.622L2470 886ZM2870 1226H2850C2850 1368.5 2725.41 1570 2416 1570V1590V1610C2746.59 1610 2890 1391.5 2890 1226H2870ZM3000.64 568H2980.64V588H3000.64V568ZM3000.64 396V376H2980.64V396H3000.64ZM3204.64 396V416H3224.64V396H3204.64ZM3204.64 174L3193.27 157.55L3184.64 163.514V174H3204.64ZM3392.64 43.9999H3412.64V5.85424L3381.27 27.5498L3392.64 43.9999ZM3392.64 396H3372.64V416H3392.64V396ZM3666.64 396H3686.64V376H3666.64V396ZM3666.64 568V588H3686.64V568H3666.64ZM3392.64 568V548H3372.64V568H3392.64ZM3666.64 1386H3686.64V1366H3666.64V1386ZM3666.64 1566V1586H3686.64V1566H3666.64ZM3204.64 568H3224.64V548H3204.64V568ZM3000.64 568H3020.64V396H3000.64H2980.64V568H3000.64ZM3000.64 396V416H3204.64V396V376H3000.64V396ZM3204.64 396H3224.64V174H3204.64H3184.64V396H3204.64ZM3204.64 174L3216.02 190.45L3404.02 60.4501L3392.64 43.9999L3381.27 27.5498L3193.27 157.55L3204.64 174ZM3392.64 43.9999H3372.64V396H3392.64H3412.64V43.9999H3392.64ZM3392.64 396V416H3666.64V396V376H3392.64V396ZM3666.64 396H3646.64V568H3666.64H3686.64V396H3666.64ZM3666.64 568V548H3392.64V568V588H3666.64V568ZM3392.64 568H3372.64V1112H3392.64H3412.64V568H3392.64ZM3392.64 1112H3372.64C3372.64 1170.81 3375.25 1218.85 3383.24 1257.57C3391.27 1296.52 3405.06 1327.6 3428.54 1350.94C3452.02 1374.27 3483.16 1387.83 3521.98 1395.7C3560.59 1403.52 3608.36 1406 3666.64 1406V1386V1366C3608.92 1366 3564.44 1363.48 3529.92 1356.49C3495.62 1349.54 3472.76 1338.48 3456.74 1322.56C3440.72 1306.65 3429.51 1283.86 3422.42 1249.49C3415.28 1214.9 3412.64 1170.19 3412.64 1112H3392.64ZM3666.64 1386H3646.64V1566H3666.64H3686.64V1386H3666.64ZM3666.64 1566V1546H3638.64V1566V1586H3666.64V1566ZM3638.64 1566V1546C3468.08 1546 3367.4 1520.68 3307.87 1458.2C3248.04 1395.42 3224.64 1289.87 3224.64 1114H3204.64H3184.64C3184.64 1290.13 3207.24 1410.58 3278.91 1485.8C3350.88 1561.32 3467.2 1586 3638.64 1586V1566ZM3204.64 1114H3224.64V568H3204.64H3184.64V1114H3204.64ZM3204.64 568V548H3000.64V568V588H3204.64V568ZM3879.28 1566H3859.28V1586H3879.28V1566ZM3879.28 396V376H3859.28V396H3879.28ZM4067.28 396H4087.28V376H4067.28V396ZM4067.28 564H4047.28L4085.11 573.069L4067.28 564ZM4591.28 454L4609.52 462.199L4617.08 445.39L4600.94 436.488L4591.28 454ZM4511.28 632L4500.36 648.752L4519.94 661.524L4529.52 640.199L4511.28 632ZM4071.28 1244H4091.28V1243.63L4091.27 1243.25L4071.28 1244ZM4071.28 1566V1586H4091.28V1566H4071.28ZM3879.28 1566H3899.28V396H3879.28H3859.28V1566H3879.28ZM3879.28 396V416H4067.28V396V376H3879.28V396ZM4067.28 396H4047.28V564H4067.28H4087.28V396H4067.28ZM4067.28 564L4085.11 573.069C4112.57 519.082 4149.02 479.674 4194.48 453.599C4240.06 427.457 4295.94 414 4363.28 414V394V374C4290.62 374 4227.51 388.543 4174.58 418.901C4121.54 449.326 4079.99 494.918 4049.46 554.931L4067.28 564ZM4363.28 394V414C4460.96 414 4525.63 440.618 4581.62 471.511L4591.28 454L4600.94 436.488C4540.94 403.382 4469.6 374 4363.28 374V394ZM4591.28 454L4573.04 445.801L4493.04 623.801L4511.28 632L4529.52 640.199L4609.52 462.199L4591.28 454ZM4511.28 632L4522.21 615.248C4499.2 600.243 4476.88 585.984 4447.57 575.848C4418.16 565.677 4382.82 560 4333.28 560V580V600C4379.74 600 4410.41 605.322 4434.5 613.652C4458.68 622.016 4477.36 633.757 4500.36 648.752L4511.28 632ZM4333.28 580V560C4250.14 560 4177.99 585.401 4126.99 643.565C4076.38 701.294 4049.28 788.273 4049.28 906H4069.28H4089.28C4089.28 793.727 4115.18 717.706 4157.07 669.935C4198.57 622.599 4258.43 600 4333.28 600V580ZM4069.28 906H4049.28C4049.28 917.277 4045.28 1084.26 4051.3 1244.75L4071.28 1244L4091.27 1243.25C4085.29 1083.74 4089.28 918.723 4089.28 906H4069.28ZM4071.28 1244H4051.28V1566H4071.28H4091.28V1244H4071.28ZM4071.28 1566V1546H3879.28V1566V1586H4071.28V1566ZM5851.83 1046V1066H5871.83V1046H5851.83ZM4829.83 1046V1026H4807.35L4809.96 1048.33L4829.83 1046ZM5651.83 1172L5661.21 1154.33L5642.51 1144.41L5633.66 1163.63L5651.83 1172ZM5813.83 1258L5831.65 1267.08L5840.58 1249.56L5823.21 1240.33L5813.83 1258ZM4839.83 876L4820.32 871.576L4814.78 896H4839.83V876ZM5657.83 876V896H5681.36L5677.57 872.773L5657.83 876ZM5261.83 1590V1570C5079.61 1570 4930.37 1506.76 4826.72 1403.11C4723.03 1299.42 4663.83 1154.15 4663.83 988H4643.83H4623.83C4623.83 1163.85 4686.63 1319.58 4798.44 1431.39C4910.29 1543.24 5070.04 1610 5261.83 1610V1590ZM4643.83 988H4663.83C4663.83 650.7 4915.22 392 5251.83 392V372V352C4892.44 352 4623.83 629.3 4623.83 988H4643.83ZM5251.83 372V392C5583.28 392 5831.83 625.532 5831.83 966H5851.83H5871.83C5871.83 602.468 5604.38 352 5251.83 352V372ZM5851.83 966H5831.83V1046H5851.83H5871.83V966H5851.83ZM5851.83 1046V1026H4829.83V1046V1066H5851.83V1046ZM4829.83 1046L4809.96 1048.33C4837.18 1280.72 5016 1440 5261.83 1440V1420V1400C5035.65 1400 4874.48 1255.28 4849.69 1043.67L4829.83 1046ZM5261.83 1420V1440C5455.99 1440 5596.88 1339.13 5669.99 1180.37L5651.83 1172L5633.66 1163.63C5566.78 1308.87 5439.67 1400 5261.83 1400V1420ZM5651.83 1172L5642.45 1189.67L5804.45 1275.67L5813.83 1258L5823.21 1240.33L5661.21 1154.33L5651.83 1172ZM5813.83 1258L5796.01 1248.92C5744.33 1350.32 5676.1 1430.32 5588.71 1485.05C5501.36 1539.76 5393.67 1570 5261.83 1570V1590V1610C5399.99 1610 5515.29 1578.24 5609.94 1518.95C5704.56 1459.68 5777.32 1373.68 5831.65 1267.08L5813.83 1258ZM5251.83 542V522C5033.88 522 4866.25 669.075 4820.32 871.576L4839.83 876L4859.33 880.424C4901.4 694.924 5053.78 562 5251.83 562V542ZM4839.83 876V896H5657.83V876V856H4839.83V876ZM5657.83 876L5677.57 872.773C5659.92 764.817 5612.9 676.693 5539.63 615.636C5466.39 554.603 5368.59 522 5251.83 522V542V562C5361.06 562 5449.26 592.397 5514.02 646.364C5578.76 700.307 5621.74 779.183 5638.09 879.226L5657.83 876ZM6066.78 1566H6046.78V1586H6066.78V1566ZM6066.78 396V376H6046.78V396H6066.78ZM6254.78 396H6274.78V376H6254.78V396ZM6254.78 576H6234.78V642.973L6271.51 586.967L6254.78 576ZM7148.78 1566V1586H7168.78V1566H7148.78ZM6956.78 1566H6936.78V1586H6956.78V1566ZM6256.78 1566V1586H6276.78V1566H6256.78ZM6066.78 1566H6086.78V396H6066.78H6046.78V1566H6066.78ZM6066.78 396V416H6254.78V396V376H6066.78V396ZM6254.78 396H6234.78V576H6254.78H6274.78V396H6254.78ZM6254.78 576L6271.51 586.967C6347.73 470.731 6481.37 392 6650.78 392V372V352C6468.19 352 6321.84 437.268 6238.06 565.033L6254.78 576ZM6650.78 372V392C6799.29 392 6918.17 440.413 7000 526.988C7081.95 613.691 7128.78 740.832 7128.78 902H7148.78H7168.78C7168.78 733.168 7119.61 595.309 7029.07 499.512C6938.4 403.587 6808.27 352 6650.78 352V372ZM7148.78 902H7128.78V1566H7148.78H7168.78V902H7148.78ZM7148.78 1566V1546H6956.78V1566V1586H7148.78V1566ZM6956.78 1566H6976.78V910H6956.78H6936.78V1566H6956.78ZM6956.78 910H6976.78C6976.78 793.968 6948.04 696.555 6886.97 627.952C6825.56 558.964 6734.04 522 6614.78 522V542V562C6725.52 562 6805.01 596.036 6857.09 654.548C6909.52 713.445 6936.78 800.032 6936.78 910H6956.78ZM6614.78 542V522C6398.95 522 6236.78 689.756 6236.78 918H6256.78H6276.78C6276.78 710.244 6422.61 562 6614.78 562V542ZM6256.78 918H6236.78V1566H6256.78H6276.78V918H6256.78ZM6256.78 1566V1546H6066.78V1566V1586H6256.78V1566Z" fill="black" mask="url(#path-5-outside-1_68_5)"/>
</svg>
